<?xml version="1.0" encoding="utf-8"?>
<!-- Generator: Adobe Illustrator 19.0.0, SVG Export Plug-In . SVG Version: 6.00 Build 0)  -->
<svg version="1.1" id="Layer_1" xmlns="http://www.w3.org/2000/svg" xmlns:xlink="http://www.w3.org/1999/xlink" x="0px" y="0px"
	 viewBox="0 0 128 128" style="enable-background:new 0 0 128 128;" xml:space="preserve">
<style type="text/css">
	.st0{fill:#6B6765;}
	.st1{fill:#3CC4E4;}
	.st2{fill:#5186C5;}
	.st3{fill:#54524F;}
	.st4{fill:#FAA224;}
	.st5{fill:#509CD5;}
	.st6{fill:#E6126B;}
	.st7{fill:#F15B2E;}
	.st8{fill:#FFCA33;}
	.st9{fill:#716E6B;}
</style>
<g id="XMLID_15_">
	<g id="XMLID_649_">
		<g id="XMLID_65_">
			<path id="XMLID_66_" class="st0" d="M73.2,127V85l36.4,21L73.2,127z"/>
		</g>
	</g>
	<g id="XMLID_642_">
		<g id="XMLID_62_">
			<path id="XMLID_63_" class="st1" d="M49.8,123.3v-42l36.4,21L49.8,123.3z"/>
		</g>
	</g>
	<g id="XMLID_635_">
		<g id="XMLID_59_">
			<path id="XMLID_60_" class="st2" d="M13.4,102.3v-42l36.4,21L13.4,102.3z"/>
		</g>
	</g>
	<g id="XMLID_628_">
		<g id="XMLID_56_">
			<path id="XMLID_57_" class="st3" d="M49.8,39.3v42l-36.4-21L49.8,39.3z"/>
		</g>
	</g>
	<g id="XMLID_621_">
		<g id="XMLID_53_">
			<path id="XMLID_54_" class="st4" d="M73.2,43v42L36.8,64L73.2,43z"/>
		</g>
	</g>
	<g id="XMLID_612_">
		<g id="XMLID_50_">
			<path id="XMLID_51_" class="st5" d="M49.8,81.3v42l-36.4-21L49.8,81.3z"/>
		</g>
	</g>
	<g id="XMLID_599_">
		<g id="XMLID_47_">
			<path id="XMLID_48_" class="st6" d="M109.6,64v42L73.2,85L109.6,64z"/>
		</g>
	</g>
	<g id="XMLID_537_">
		<g id="XMLID_39_">
			<path id="XMLID_40_" class="st7" d="M73.2,85V43l36.4,21L73.2,85z"/>
		</g>
	</g>
	<g id="XMLID_530_">
		<g id="XMLID_43_">
			<path id="XMLID_44_" class="st8" d="M36.8,64V22l36.4,21L36.8,64z"/>
		</g>
	</g>
	<g id="XMLID_18_">
		<g id="XMLID_38_">
			<path id="XMLID_42_" class="st9" d="M73.2,1v42L36.8,22L73.2,1z"/>
		</g>
	</g>
	<polygon id="XMLID_17_" class="st3" points="36.8,22 73.2,35.9 73.2,43 	"/>
	<polygon id="XMLID_16_" class="st3" points="73.2,85 73.2,94.3 109.6,106 	"/>
</g>
</svg>
